<svg width="48" height="48" viewBox="0 0 48 48" fill="none" xmlns="http://www.w3.org/2000/svg">
<path d="M24 3.16669C12.4938 3.16669 3.16669 12.4938 3.16669 24C3.16669 35.5063 12.4938 44.8334 24 44.8334C35.5063 44.8334 44.8334 35.5063 44.8334 24C44.8334 12.4938 35.5063 3.16669 24 3.16669Z" stroke="#DDDDFF" stroke-width="5" stroke-linecap="round" stroke-linejoin="round"/>
<path d="M7.89795 37.2208C7.89795 37.2208 12.5417 31.2917 24 31.2917C35.4584 31.2917 40.1042 37.2208 40.1042 37.2208M24 24C25.6576 24 27.2473 23.3415 28.4195 22.1694C29.5916 20.9973 30.25 19.4076 30.25 17.75C30.25 16.0924 29.5916 14.5027 28.4195 13.3306C27.2473 12.1585 25.6576 11.5 24 11.5C22.3424 11.5 20.7527 12.1585 19.5806 13.3306C18.4085 14.5027 17.75 16.0924 17.75 17.75C17.75 19.4076 18.4085 20.9973 19.5806 22.1694C20.7527 23.3415 22.3424 24 24 24V24Z" stroke="#DDDDFF" stroke-width="5" stroke-linecap="round" stroke-linejoin="round"/>
</svg>
