<svg width="50" height="50" viewBox="0 0 50 50" fill="none" xmlns="http://www.w3.org/2000/svg">
<path fill-rule="evenodd" clip-rule="evenodd" d="M34.091 18.1817C34.091 20.5928 33.1332 22.9051 31.4283 24.61C29.7235 26.3148 27.4111 27.2726 25.0001 27.2726C22.589 27.2726 20.2767 26.3148 18.5718 24.61C16.867 22.9051 15.9092 20.5928 15.9092 18.1817C15.9092 15.7707 16.867 13.4584 18.5718 11.7535C20.2767 10.0486 22.589 9.09082 25.0001 9.09082C27.4111 9.09082 29.7235 10.0486 31.4283 11.7535C33.1332 13.4584 34.091 15.7707 34.091 18.1817V18.1817ZM29.5455 18.1817C29.5455 19.3873 29.0666 20.5434 28.2142 21.3959C27.3618 22.2483 26.2056 22.7272 25.0001 22.7272C23.7946 22.7272 22.6384 22.2483 21.786 21.3959C20.9335 20.5434 20.4546 19.3873 20.4546 18.1817C20.4546 16.9762 20.9335 15.82 21.786 14.9676C22.6384 14.1152 23.7946 13.6363 25.0001 13.6363C26.2056 13.6363 27.3618 14.1152 28.2142 14.9676C29.0666 15.82 29.5455 16.9762 29.5455 18.1817V18.1817Z" fill="#08B6CE"/>
<path fill-rule="evenodd" clip-rule="evenodd" d="M25 0C11.1932 0 0 11.1932 0 25C0 38.8068 11.1932 50 25 50C38.8068 50 50 38.8068 50 25C50 11.1932 38.8068 0 25 0ZM4.54545 25C4.54545 29.75 6.16591 34.1227 8.88182 37.5955C10.7892 35.0907 13.2498 33.0608 16.0714 31.6643C18.8931 30.2679 21.9994 29.5427 25.1477 29.5455C28.2553 29.5425 31.3225 30.2489 34.1158 31.6109C36.909 32.9728 39.3545 34.9544 41.2659 37.4045C43.2351 34.8218 44.561 31.8073 45.1339 28.6104C45.7067 25.4136 45.5101 22.1262 44.5602 19.0204C43.6104 15.9146 41.9346 13.0797 39.6716 10.7501C37.4085 8.42052 34.6233 6.66332 31.5463 5.62388C28.4693 4.58445 25.1891 4.29266 21.977 4.77267C18.7648 5.25267 15.7132 6.49066 13.0745 8.38421C10.4358 10.2778 8.28593 12.7724 6.80279 15.6618C5.31965 18.5512 4.54586 21.7522 4.54545 25V25ZM25 45.4545C20.3044 45.4616 15.7506 43.8462 12.1091 40.8818C13.5748 38.7835 15.5258 37.0703 17.7959 35.8879C20.066 34.7056 22.5882 34.0891 25.1477 34.0909C27.6754 34.0889 30.167 34.6899 32.4157 35.8441C34.6645 36.9984 36.6054 38.6724 38.0773 40.7273C34.4075 43.788 29.7786 45.4612 25 45.4545V45.4545Z" fill="#08B6CE"/>
</svg>
