<svg width="34" height="44" viewBox="0 0 34 44" fill="none" xmlns="http://www.w3.org/2000/svg">
<path d="M17 33.4167C18.1051 33.4167 19.1649 32.9777 19.9463 32.1963C20.7277 31.4149 21.1667 30.3551 21.1667 29.25C21.1667 28.145 20.7277 27.0852 19.9463 26.3038C19.1649 25.5224 18.1051 25.0834 17 25.0834C15.895 25.0834 14.8352 25.5224 14.0538 26.3038C13.2724 27.0852 12.8334 28.145 12.8334 29.25C12.8334 30.3551 13.2724 31.4149 14.0538 32.1963C14.8352 32.9777 15.895 33.4167 17 33.4167ZM29.5 14.6667C30.6051 14.6667 31.6649 15.1057 32.4463 15.8871C33.2277 16.6685 33.6667 17.7283 33.6667 18.8334V39.6667C33.6667 40.7718 33.2277 41.8316 32.4463 42.613C31.6649 43.3944 30.6051 43.8334 29.5 43.8334H4.50004C3.39497 43.8334 2.33516 43.3944 1.55376 42.613C0.772361 41.8316 0.333374 40.7718 0.333374 39.6667V18.8334C0.333374 17.7283 0.772361 16.6685 1.55376 15.8871C2.33516 15.1057 3.39497 14.6667 4.50004 14.6667H6.58337V10.5C6.58337 7.73737 7.68084 5.08785 9.63434 3.13434C11.5878 1.18084 14.2374 0.083374 17 0.083374C18.368 0.083374 19.7225 0.352809 20.9863 0.876296C22.2501 1.39978 23.3985 2.16707 24.3657 3.13434C25.333 4.10162 26.1003 5.24995 26.6238 6.51375C27.1473 7.77756 27.4167 9.1321 27.4167 10.5V14.6667H29.5ZM17 4.25004C15.3424 4.25004 13.7527 4.90852 12.5806 6.08062C11.4085 7.25273 10.75 8.84244 10.75 10.5V14.6667H23.25V10.5C23.25 8.84244 22.5916 7.25273 21.4195 6.08062C20.2474 4.90852 18.6576 4.25004 17 4.25004Z" fill="#08B6CE"/>
</svg>
