<svg width="31" height="35" viewBox="0 0 31 35" fill="none" xmlns="http://www.w3.org/2000/svg">
<path d="M10.625 25.9375L15.5 21.0625L20.375 25.9375L23 23.3125L18.125 18.4375L23 13.5625L20.375 10.9375L15.5 15.8125L10.625 10.9375L8 13.5625L12.875 18.4375L8 23.3125L10.625 25.9375ZM6.125 34.375C5.09375 34.375 4.21125 34.0081 3.4775 33.2744C2.7425 32.5394 2.375 31.6562 2.375 30.625V6.25H0.5V2.5H9.875V0.625H21.125V2.5H30.5V6.25H28.625V30.625C28.625 31.6562 28.2581 32.5394 27.5244 33.2744C26.7894 34.0081 25.9062 34.375 24.875 34.375H6.125Z" fill="#E33737"/>
</svg>
